<?xml version="1.0" encoding="utf-8"?>
<!-- Generator: Adobe Illustrator 28.0.0, SVG Export Plug-In . SVG Version: 6.00 Build 0)  -->
<svg version="1.1" baseProfile="tiny" id="Layer_1" xmlns="http://www.w3.org/2000/svg" xmlns:xlink="http://www.w3.org/1999/xlink"
	 x="0px" y="0px" viewBox="0 0 19.9 18.8" overflow="visible" xml:space="preserve">
<path fill="#278DD1" d="M6.8,6c0,0-3.8,0.4-6.3,0.7C0.3,6.8,0.1,6.9,0,7.1C0,7.4,0,7.6,0.2,7.8C2.1,9.4,4.9,12,4.9,12
	c0,0-0.8,3.7-1.3,6.1c0,0.2,0,0.5,0.2,0.6c0.2,0.1,0.4,0.1,0.6,0c2.2-1.2,5.5-3.1,5.5-3.1s3.3,1.9,5.5,3.1c0.2,0.1,0.5,0.1,0.6,0
	c0.2-0.1,0.3-0.4,0.2-0.6C15.8,15.6,15,12,15,12s2.8-2.5,4.7-4.2c0.2-0.2,0.2-0.4,0.2-0.6c-0.1-0.2-0.3-0.4-0.5-0.4
	C16.9,6.5,13.1,6,13.1,6s-1.6-3.4-2.6-5.7C10.4,0.1,10.2,0,10,0C9.7,0,9.5,0.1,9.4,0.3C8.4,2.6,6.8,6,6.8,6z"/>
</svg>
