<?xml version="1.0" encoding="utf-8"?>
<!-- Generator: Adobe Illustrator 28.0.0, SVG Export Plug-In . SVG Version: 6.00 Build 0)  -->
<svg version="1.1" baseProfile="tiny" id="Layer_1" xmlns="http://www.w3.org/2000/svg" xmlns:xlink="http://www.w3.org/1999/xlink"
	 x="0px" y="0px" viewBox="0 0 297.1 267.6" overflow="visible" xml:space="preserve">
<g>
	<path fill="#22A4D6" d="M90.7,77.4c39,0,76.9,0,115.7,0c-19.2,63.8-38.2,127-57.2,190.1c-0.4,0.1-0.9,0.1-1.3,0.2
		C128.9,204.5,109.9,141.3,90.7,77.4z"/>
	<path fill="#22A4D6" d="M0,77.1c24.3,0,47.3,0,70.2,0c3.9,0,4,3,4.7,5.4c9.5,31.5,18.9,63,28.3,94.5c6.5,21.6,13,43.3,19.5,64.9
		c0.2,0.8,0.3,1.5-0.3,2.7C81.8,189.1,41.3,133.6,0,77.1z"/>
	<path fill="#22A4D6" d="M297.1,77.1c-41.2,56.4-81.8,112-122.5,167.5c-0.3-0.2-0.6-0.3-0.9-0.5c3.4-11.6,6.8-23.1,10.3-34.7
		c12.6-42.2,25.3-84.3,37.8-126.5c1.3-4.4,3.2-6,7.9-6C251.8,77.2,273.8,77.1,297.1,77.1z"/>
	<path fill="#22A4D6" d="M203.8,60.2c-37.1,0-73.5,0-110.7,0c0.7-1.8,1.2-3.3,1.9-4.7c8.5-17,17.1-33.9,25.4-50.9
		c1.6-3.2,3.4-4.7,7.2-4.6c14.2,0.2,28.3,0,42.5,0.2c1.9,0,4.8,1.2,5.6,2.8c9.4,18.2,18.5,36.5,27.6,54.8
		C203.4,58.3,203.5,59,203.8,60.2z"/>
	<path fill="#22A4D6" d="M104.3,0.1c-6.7,13.5-12.9,25.9-19,38.2c-3.1,6.3-6.1,12.6-9.5,18.7c-0.8,1.5-2.8,3.2-4.3,3.2
		c-23.5,0.2-46.9,0.1-71,0.1c0.5-1.2,0.6-2,1.1-2.5C14.6,40.6,27.7,23.4,40.7,6c3.1-4.2,6.6-6.1,12.1-6C68,0.4,83.1,0.1,98.3,0.1
		C99.9,0.1,101.5,0.1,104.3,0.1z"/>
	<path fill="#22A4D6" d="M193.5,0.4c1.9-0.1,3.3-0.3,4.7-0.3c16.3,0,32.6-0.1,48.9,0.2c2.3,0,5.4,1.2,6.8,2.9
		c14.2,18.3,28.1,36.7,42,55.2c0.3,0.3,0.2,0.9,0.5,1.8c-1.4,0.1-2.7,0.3-3.9,0.3c-21.6,0-43.3,0-64.9,0.1c-2.9,0-5-0.4-6.4-3.4
		c-8.8-17.9-17.7-35.7-26.6-53.6C194.1,2.7,193.9,1.7,193.5,0.4z"/>
</g>
</svg>
