<?xml version="1.0" encoding="utf-8"?>
<!-- Generator: Adobe Illustrator 28.0.0, SVG Export Plug-In . SVG Version: 6.00 Build 0)  -->
<svg version="1.1" baseProfile="tiny" id="Layer_1" xmlns="http://www.w3.org/2000/svg" xmlns:xlink="http://www.w3.org/1999/xlink"
	 x="0px" y="0px" viewBox="0 0 291.3 268.7" overflow="visible" xml:space="preserve">
<g>
	<path fill="#3EA9DF" d="M291.3,25.4c-0.4,45.7-16.5,82.9-42.9,116.2c-25.3,31.9-57.9,54.7-93.5,73.6c-3.6,1.9-6.4,1.5-9.5-1.3
		c-28.6-26.5-57.2-52.9-85.9-79.3c-2.7-2.5-3.7-4.9-1.6-8.3C93,69.3,139.6,26.6,205.2,7.6c25.7-7.4,52-9.1,78.6-6.5
		c3.7,0.4,5.8,2,6.1,5.9C290.4,14,291,21,291.3,25.4z M235.8,90.8c-1.8-5.6-2.7-11.7-5.4-16.8c-12.4-23.1-42.1-29-64.2-13.2
		c-17,12.2-21.1,34.7-9,51.6c7.8,10.9,19.2,16,32.3,17.6C212.6,132.7,234.6,113.9,235.8,90.8z"/>
	<path fill="#3EA9DF" d="M8.2,268.6c-8.1,0.5-9.1-0.6-7.8-9.7c2.9-20.1,11.3-37.4,26.3-51.3c17.1-15.8,43.7-8.5,48.5,13.3
		c2.4,10.9-3.7,18.5-11.1,25.1C50.3,258.3,27,267.5,8.2,268.6z"/>
	<path fill="#3EA9DF" d="M143.9,226c7.8,2.6,13.8-0.3,19.9-3.6c23.1-12.4,44.8-26.8,64.4-44.3c0.9-0.8,1.8-1.4,4.1-3.1
		c-0.8,5.9-1,10.6-2,15.1c-7,33.7-28.6,54.7-59.4,67.2c-7.5,3-15.5,4.9-23.4,6.8c-5.2,1.3-8.2-0.5-7.7-4.6
		C140.8,248.5,142.4,237.5,143.9,226z"/>
	<path fill="#3EA9DF" d="M99.6,54.8c-19.4,20.6-36.9,41.7-50.8,65.5c-2.1,3.6-2,8.4-3.2,12.6c-0.4,1.3-1.7,3.2-2.8,3.4
		c-10.4,1.3-20.8,2.4-31.2,3.4c-5.9,0.5-7.7-1.6-6.6-7.3c7.4-38.5,41.9-71.1,81-76.2C90.4,55.5,95,55.2,99.6,54.8z"/>
	<path fill="#3EA9DF" d="M120.7,205.7c-11.6,6.9-17.4,6.4-26.6-2c-8.2-7.5-16.4-15.1-24.6-22.7c-8-7.5-8.4-14-1.1-23.6
		C85.7,173.4,103,189.4,120.7,205.7z"/>
	<path fill="#3EA9DF" d="M223.1,91.2c-0.1,16.5-13,28.3-30.9,28.2c-17.2-0.1-31-12.6-30.4-28.4c0.6-17.6,12.7-28.1,30.9-28.5
		C210.3,62.1,223.2,74.8,223.1,91.2z"/>
</g>
</svg>
